<svg id="Слой_1" data-name="Слой 1" xmlns="http://www.w3.org/2000/svg" xmlns:xlink="http://www.w3.org/1999/xlink" viewBox="0 0 269 269"><defs><style>.cls-1{fill:#fff;}.cls-2{opacity:0.7;}.cls-3{mask:url(#mask);}.cls-4,.cls-6{fill:none;stroke-width:48px;}.cls-4{stroke:#f5a623;stroke-dasharray:1 4;}.cls-5{mask:url(#mask-2-2);}.cls-6{stroke:#fff;stroke-dasharray:208.29 486;}</style><mask id="mask" x="0" y="0" width="269" height="269" maskUnits="userSpaceOnUse"><g transform="translate(24 24)"><g id="mask-2"><path id="path-1" class="cls-1" d="M110.5,221A110.5,110.5,0,1,0,0,110.5,110.5,110.5,0,0,0,110.5,221Z"/></g></g></mask><mask id="mask-2-2" x="0" y="0" width="269" height="269" maskUnits="userSpaceOnUse"><g transform="translate(24 24)"><g id="mask-2-3" data-name="mask-2"><path id="path-1-2" data-name="path-1" class="cls-1" d="M55.05,205.77c52.78,30.9,120.39,13.29,151-39.33S218.72,46.13,166,15.23,45.56,1.94,14.94,54.56,2.27,174.88,55.05,205.77Z"/></g></g></mask></defs><title>Oval@22222221x</title><g id="Final" class="cls-2"><g id="v1-1-4-mobile-floor"><g id="Group"><g id="Group-5"><g id="Group-4"><g id="round"><g id="Screen"><g id="Dial"><g class="cls-3"><g id="faded-ticks"><g id="Oval"><path id="path-1-3" data-name="path-1" class="cls-4" d="M110.5,221A110.5,110.5,0,1,0,0,110.5,110.5,110.5,0,0,0,110.5,221Z" transform="translate(24 24)"/></g></g></g></g></g></g></g></g></g></g></g><g id="Слой_2" data-name="Слой 2"><g id="v1-1-4-mobile-floor-2" data-name="v1-1-4-mobile-floor"><g id="Group-2" data-name="Group"><g id="Group-5-2" data-name="Group-5"><g id="Group-4-2" data-name="Group-4"><g id="round-2" data-name="round"><g id="Screen-2" data-name="Screen"><g id="Dial-2" data-name="Dial"><g class="cls-5"><g id="faded-ticks-2" data-name="faded-ticks"><g id="Oval-2" data-name="Oval"><path id="path-1-4" data-name="path-1" class="cls-6" d="M55.05,205.77c52.78,30.9,120.39,13.29,151-39.33S218.72,46.13,166,15.23,45.56,1.94,14.94,54.56,2.27,174.88,55.05,205.77Z" transform="translate(24 24)"/></g></g></g></g></g></g></g></g></g></g></g></svg>